<svg xmlns="http://www.w3.org/2000/svg" xmlns:xlink="http://www.w3.org/1999/xlink" version="1.1" x="0px" y="0px" viewBox="0 0 160 200" style="enable-background:new 0 0 160 160;" xml:space="preserve"><path d="M132.8,39.7h-2.1h-6.7H63.2c-3.1,0-6.2,1.1-8.6,3.2L35.3,59.2l-12,3.6h-9.7c-2,0-3.6,1.6-3.6,3.6s1.6,3.6,3.6,3.6h5.2  l-0.4,25.4c-0.2,2.1,1.2,4.1,3.2,4.7l5.3,1.6c1.2,0.4,2.6,0.2,3.7-0.5l2.6-1.6c4-2.5,7.5-5.8,10.2-9.6H54l4.2,5v21.9  c0,2,1.6,3.6,3.6,3.6c2,0,3.6-1.6,3.6-3.6V94.6l4.9-2.9l3.3,25.5c0.2,1.8,1.8,3.1,3.5,3.1c0.2,0,0.3,0,0.5,0c1.9-0.3,3.3-2,3.1-4  l-3.5-26.8h32.3l7,3.8l-7.3,22.4c-0.6,1.9,0.4,3.9,2.3,4.5c0.4,0.1,0.7,0.2,1.1,0.2c1.5,0,2.9-1,3.4-2.5l6.9-21.2l9.5,5.1v15  c0,2,1.6,3.6,3.6,3.6c2,0,3.6-1.6,3.6-3.6V94c0-0.8-0.1-1.6-0.4-2.3l-4.6-13.9l2.9-10.3c0.5-1.6,0.7-3.3,0.7-4.9V48.2  c2.9,1.8,4.9,5,4.9,8.6v24c0,2,1.6,3.6,3.6,3.6s3.6-1.6,3.6-3.6v-24C150,47.4,142.3,39.7,132.8,39.7z M122.5,88.5  C122.5,88.5,122.5,88.5,122.5,88.5L112,82.8c-0.5-0.3-1.1-0.4-1.7-0.4H73c0,0-0.1,0-0.1,0c-0.1,0-0.2,0-0.3,0c-0.1,0-0.2,0-0.3,0.1  c-0.1,0-0.2,0-0.2,0.1c-0.3,0.1-0.5,0.2-0.8,0.3L62,88.3L58.5,84c-0.7-0.8-1.7-1.3-2.7-1.3H41.4c-1.2,0-2.4,0.6-3,1.7  c-2.3,3.6-5.4,6.7-9,9l-1.6,1l-2.3-0.7l0.4-24.2l12.2-3.7c0.5-0.1,0.9-0.4,1.3-0.7l19.9-16.9c1.1-0.9,2.5-1.5,4-1.5h60.8h6.7  c0.1,0,0.2,0.1,0.2,0.3v15.6c0,1-0.1,2-0.4,3l-3.2,11.3c-0.2,0.7-0.2,1.4,0,2.1l4.9,14.7L122.5,88.5z"/><text x="0" y="175" fill="#000000" font-size="5px" font-weight="bold" font-family="'Helvetica Neue', Helvetica, Arial-Unicode, Arial, Sans-serif">Created by Symbolon</text><text x="0" y="180" fill="#000000" font-size="5px" font-weight="bold" font-family="'Helvetica Neue', Helvetica, Arial-Unicode, Arial, Sans-serif">from the Noun Project</text></svg>