<svg xmlns="http://www.w3.org/2000/svg" data-name="Layer 1" viewBox="0 0 100 125" x="0px" y="0px"><title>Artboard 1</title><path d="M72.5,32.5A14,14,0,0,0,53.76,19.34,10.22,10.22,0,0,0,36,23.78a11.49,11.49,0,0,0-5.65,19.33A4.07,4.07,0,0,0,29.88,45a4,4,0,0,0,4,4H36L46.68,79.74a3.5,3.5,0,0,0,6.64,0L64.05,49h1.86a4,4,0,0,0,2.77-6.89A13.86,13.86,0,0,0,72.5,32.5ZM46,18.75a7.23,7.23,0,0,1,5,2,14.06,14.06,0,0,0-5,5.52,11.4,11.4,0,0,0-6.77-2.72A7.24,7.24,0,0,1,46,18.75ZM50.48,78.8a.5.5,0,0,1-1,0L39.13,49H42v3.5a4,4,0,0,0,8,0V51.37a3.66,3.66,0,0,0,1,.13A4,4,0,0,0,54.71,49h6.16ZM65.91,46H53.5A1.5,1.5,0,0,0,52,47.5a1,1,0,0,1-2,0,1.5,1.5,0,0,0-3,0v5a1,1,0,0,1-2,0v-5A1.5,1.5,0,0,0,43.5,46H33.87a1,1,0,0,1-.57-1.82A1.48,1.48,0,0,0,34,43a1.52,1.52,0,0,0-.59-1.23A8.37,8.37,0,0,1,30,35a8.5,8.5,0,0,1,15.3-5.1,1.5,1.5,0,0,0,1.47.58,1.52,1.52,0,0,0,1.17-1.06A11,11,0,0,1,69.5,32.5a10.91,10.91,0,0,1-4.4,8.8,1.5,1.5,0,0,0,.84,2.7,1,1,0,0,1,0,2Z"/><path d="M66.5,32.5a8,8,0,0,0-8-8,1.5,1.5,0,0,0,0,3,5,5,0,0,1,5,5,1.5,1.5,0,0,0,3,0Z"/><text x="0" y="115" fill="#000000" font-size="5px" font-weight="bold" font-family="'Helvetica Neue', Helvetica, Arial-Unicode, Arial, Sans-serif">Created by I Create Stuff</text><text x="0" y="120" fill="#000000" font-size="5px" font-weight="bold" font-family="'Helvetica Neue', Helvetica, Arial-Unicode, Arial, Sans-serif">from the Noun Project</text></svg>