<?xml version="1.0" encoding="UTF-8" standalone="no"?>
<svg
   version="1.1"
   x="0px"
   y="0px"
   viewBox="0 0 24 30"
   enable-background="new 0 0 24 24"
   xml:space="preserve"
   id="svg1563"
   sodipodi:docname="noun_Ice Cream Cone_1303133.svg"
   inkscape:version="1.1-dev (9017afb, 2021-01-01)"
   xmlns:inkscape="http://www.inkscape.org/namespaces/inkscape"
   xmlns:sodipodi="http://sodipodi.sourceforge.net/DTD/sodipodi-0.dtd"
   xmlns="http://www.w3.org/2000/svg"
   xmlns:svg="http://www.w3.org/2000/svg"><defs
     id="defs1567" /><sodipodi:namedview
     id="namedview1565"
     pagecolor="#ffffff"
     bordercolor="#666666"
     borderopacity="1.0"
     objecttolerance="10.0"
     gridtolerance="10.0"
     guidetolerance="10.0"
     inkscape:pageshadow="2"
     inkscape:pageopacity="0.0"
     inkscape:pagecheckerboard="0"
     showgrid="false"
     inkscape:zoom="20.166667"
     inkscape:cx="13.165289"
     inkscape:cy="10.983471"
     inkscape:window-width="1296"
     inkscape:window-height="833"
     inkscape:window-x="0"
     inkscape:window-y="0"
     inkscape:window-maximized="0"
     inkscape:current-layer="svg1563" /><path
     style="fill:none;stroke:#000000;stroke-width:0.2;stroke-miterlimit:4;stroke-dasharray:none"
     d="M 6.926,8.194 C 7.167,7.979 7.491,7.883 7.895,7.91 8.059,7.917 8.21,7.841 8.289,7.721 8.433,7.504 8.325,7.292 8.246,7.138 8.128,6.905 7.908,6.471 8.029,5.852 8.138,5.288 8.412,4.678 9.618,4.433 9.73,4.41 9.826,4.341 9.884,4.243 9.941,4.144 9.953,4.026 9.918,3.917 9.912,3.898 9.329,2.045 10.491,1.315 11.256,0.834 11.96,0.798 12.382,0.859 c -0.074,0.053 -0.144,0.121 -0.2,0.207 -0.127,0.192 -0.162,0.428 -0.104,0.701 0.125,0.587 0.659,0.877 1.131,1.134 0.558,0.304 0.912,0.551 1.024,1.001 -0.222,0.068 -0.471,0.169 -0.755,0.331 -1.017,0.577 -1.639,0.47 -1.746,0.282 -0.111,-0.191 -0.355,-0.256 -0.547,-0.146 -0.192,0.11 -0.257,0.355 -0.146,0.546 0.352,0.607 1.361,0.849 2.834,0.013 0.82,-0.464 1.178,-0.305 1.195,-0.295 0.047,0.024 1.088,0.594 0.546,1.971 -0.238,0.019 -0.494,0.058 -0.778,0.135 -0.292,0.083 -0.604,0.218 -0.998,0.39 -0.243,0.106 -0.516,0.224 -0.826,0.348 -1.604,0.64 -2.223,0.338 -2.366,0.241 C 10.632,7.694 10.616,7.671 10.596,7.65 10.46,7.498 10.213,7.459 10.048,7.575 9.881,7.69 9.833,7.927 9.93,8.106 c 0.005,0.012 0.678,1.188 3.378,0.114 0.318,-0.127 0.598,-0.249 0.848,-0.357 0.367,-0.16 0.657,-0.286 0.894,-0.353 0.818,-0.223 1.453,-0.147 1.892,0.215 0.523,0.434 0.663,1.193 0.62,1.76 -0.024,0.306 -0.181,1.127 -0.621,1.432 H 7.236 C 7.03,10.809 6.39,10.4 6.435,9.484 6.463,8.9 6.633,8.454 6.926,8.194 Z"
     id="path2430" /><path
     style="fill:none;stroke:#000000;stroke-width:0.2;stroke-miterlimit:4;stroke-dasharray:none"
     d="M 15.581,13.751 H 8.442 L 7.686,11.72 16.322,11.717 Z"
     id="path2428" /><path
     style="fill:none;stroke:#000000;stroke-width:0.2;stroke-miterlimit:4;stroke-dasharray:none"
     d="m 12.188,23.07 c -0.037,0.102 -0.234,0.105 -0.273,0 L 10.85,20.212 h 2.379 z"
     id="path2426" /><path
     style="fill:none;stroke:#000000;stroke-width:0.2;stroke-miterlimit:4;stroke-dasharray:none"
     d="M 13.52,19.412 H 10.552 L 9.795,17.381 h 4.464 z"
     id="path2424" /><path
     style="fill:none;stroke:#000000;stroke-width:0.2;stroke-miterlimit:4;stroke-dasharray:none"
     d="M 14.55,16.581 H 9.497 L 8.74,14.551 h 6.549 z"
     id="path2422" /><text
     x="0"
     y="39"
     fill="#000000"
     font-size="5px"
     font-weight="bold"
     font-family="'Helvetica Neue', Helvetica, Arial-Unicode, Arial, Sans-serif"
     id="text1559">Created by Atif Arshad</text><text
     x="0"
     y="44"
     fill="#000000"
     font-size="5px"
     font-weight="bold"
     font-family="'Helvetica Neue', Helvetica, Arial-Unicode, Arial, Sans-serif"
     id="text1561">from the Noun Project</text></svg>
