<svg xmlns="http://www.w3.org/2000/svg" data-name="Layer 1" viewBox="0 0 512 640" x="0px" y="0px"><title>Milk</title><path d="M342.081,163.169A165.489,165.489,0,0,1,324,87.9V66.254c7-2.5,13-9.634,13-18.038V22.32A19.64,19.64,0,0,0,317.6,3H194.4A19.64,19.64,0,0,0,175,22.32v25.9c0,8.4,6,15.539,13,18.038V87.9a165.489,165.489,0,0,1-18.081,75.265l-15.077,30.238A181.413,181.413,0,0,0,135,275.883V458.207C135,486.038,162.492,509,196.462,509H315.538C349.508,509,377,486.038,377,458.207V275.883a181.413,181.413,0,0,0-19.842-82.476ZM191,22.32A3.652,3.652,0,0,1,194.4,19H317.6a3.652,3.652,0,0,1,3.4,3.32v25.9c0,1.655-1.741,2.784-3.4,2.784H194.4c-1.655,0-3.4-1.129-3.4-2.784Zm-21.831,178.3L184.2,170.38A181.35,181.35,0,0,0,204,87.9V67H308V87.9a181.35,181.35,0,0,0,19.8,82.476l15.15,30.238a167.529,167.529,0,0,1,17.561,60.347c-10.937,1.732-17.589,6.322-23.624,10.484-6.788,4.682-12.366,8.38-24.076,8.38s-17.085-3.7-23.873-8.379c-7.618-5.254-16.267-11.208-32.96-11.208s-25.352,5.954-32.969,11.208c-6.788,4.681-12.2,8.379-23.909,8.379s-17.169-3.7-23.957-8.379c-6.034-4.162-12.654-8.752-23.59-10.485A167.612,167.612,0,0,1,169.169,200.618ZM315.538,493H196.462C171.315,493,151,477.215,151,458.207V277.1c6,1.354,10.289,4.183,15.127,7.52,7.618,5.253,16.413,11.208,33.1,11.208s25.307-5.955,32.925-11.208c6.788-4.682,12.14-8.379,23.849-8.379s17.068,3.7,23.856,8.379c7.618,5.254,16.25,11.208,32.941,11.208s25.452-5.955,33.07-11.208c4.839-3.337,9.128-6.166,15.128-7.52V458.207C361,477.215,340.685,493,315.538,493Z"/><text x="0" y="527" fill="#000000" font-size="5px" font-weight="bold" font-family="'Helvetica Neue', Helvetica, Arial-Unicode, Arial, Sans-serif">Created by Kiran Shastry</text><text x="0" y="532" fill="#000000" font-size="5px" font-weight="bold" font-family="'Helvetica Neue', Helvetica, Arial-Unicode, Arial, Sans-serif">from the Noun Project</text></svg>