<svg xmlns="http://www.w3.org/2000/svg" xmlns:xlink="http://www.w3.org/1999/xlink" version="1.1" x="0px" y="0px" viewBox="0 0 48 60" enable-background="new 0 0 48 48" xml:space="preserve"><g><path d="M47,42.3c-2.1-2-3.4-4.7-3.8-7.5c-0.7-5.4-1.9-10.3-3.5-14.6c0.3-0.1,0.6-0.3,1-0.4c0.3-0.2,0.6-0.5,0.6-0.9v-6.1   c0-0.3-0.1-0.6-0.4-0.8c-0.2-0.2-0.5-0.3-0.8-0.2c-0.5,0.1-0.9,0.2-1.4,0.2C36.2,4.8,30.5,0,24.2,0c-6.3,0-12,4.8-14.5,12   c-0.6-0.1-1.2-0.2-1.7-0.3c-0.3-0.1-0.6,0-0.8,0.2c-0.2,0.2-0.4,0.5-0.4,0.8v6.1c0,0.4,0.2,0.8,0.6,0.9c0.3,0.1,0.6,0.2,1,0.4   c-1.6,4.3-2.8,9.3-3.5,14.7c-0.4,2.8-1.7,5.5-3.8,7.5C0,43.4-0.3,45,0.4,46.2C0.9,47.3,2.1,48,3.3,48c0.8,0,1.6-0.3,2.2-0.9   c0,0,0.1-0.1,0.1-0.1c1.5-1.5,3.6-2.1,5.7-1.8c8.5,1.4,17,1.4,25.3,0c2.1-0.3,4.3,0.3,5.7,1.8c0.6,0.6,1.5,1,2.3,1   c1.1,0,2-0.5,2.7-1.4C48.3,45.3,48.1,43.5,47,42.3z M24.2,2c5.3,0,10.2,4.1,12.5,10.3c-8.2,1.3-16.6,1.3-24.9,0   C13.9,6.1,18.8,2,24.2,2z M8.8,13.9c15.6,3,30.2,0,30.5,0v4.3c-14.5,7-29.7,0.5-30.5,0V13.9z M45.8,45.5c-0.5,0.6-1.4,0.7-2,0.2   c-1.6-1.6-3.7-2.5-6-2.5c-0.5,0-1,0-1.4,0.1c-8.1,1.3-16.4,1.3-24.6,0c-2.7-0.5-5.5,0.4-7.4,2.3c0,0-0.1,0.1-0.1,0.1   c-0.6,0.6-1.7,0.4-2.1-0.3c-0.2-0.5-0.1-1.1,0.3-1.5c2.4-2.4,3.9-5.5,4.3-8.7c0.7-5.2,1.8-10.1,3.4-14.2c0.4,0.1,14,5.6,27.7,0.1   c1.6,4.2,2.7,8.9,3.4,14.1c0.4,3.3,2,6.4,4.3,8.7C46,44.2,46.1,45,45.8,45.5z"/><path d="M25,6.2l0-0.5c0-0.6-0.5-1-1.1-0.9c-0.6,0-1,0.5-0.9,1.1l0,0.5c0,0.5,0.5,0.9,1,0.9c0,0,0,0,0.1,0   C24.6,7.2,25.1,6.7,25,6.2z"/><path d="M26.1,12C26.1,12,26.1,12,26.1,12c0.6,0,1-0.5,1-1.1l0-0.5c0-0.6-0.5-1-1.1-0.9c-0.6,0-1,0.5-0.9,1.1l0,0.5   C25.1,11.6,25.5,12,26.1,12z"/><path d="M31.5,9.3C31.5,9.3,31.5,9.3,31.5,9.3c0.6,0,1-0.5,1-1.1l0-0.5c0-0.6-0.5-1-1.1-0.9c-0.6,0-1,0.5-0.9,1.1l0,0.5   C30.5,8.9,31,9.3,31.5,9.3z"/><path d="M18,8.3c-0.6,0-1,0.5-0.9,1.1l0,0.5c0,0.5,0.5,0.9,1,0.9c0,0,0,0,0.1,0c0.6,0,1-0.5,0.9-1.1l0-0.5C19,8.7,18.6,8.3,18,8.3z   "/></g><text x="0" y="63" fill="#000000" font-size="5px" font-weight="bold" font-family="'Helvetica Neue', Helvetica, Arial-Unicode, Arial, Sans-serif">Created by Vectors Market</text><text x="0" y="68" fill="#000000" font-size="5px" font-weight="bold" font-family="'Helvetica Neue', Helvetica, Arial-Unicode, Arial, Sans-serif">from the Noun Project</text></svg>