<?xml version="1.0" encoding="UTF-8" standalone="no"?>
<svg
   version="1.1"
   x="0px"
   y="0px"
   viewBox="0 0 100 125"
   style="enable-background:new 0 0 100 100;"
   xml:space="preserve"
   id="svg929"
   sodipodi:docname="noun_Salt_1673033.svg"
   inkscape:version="1.1-dev (9017afb, 2021-01-01)"
   xmlns:inkscape="http://www.inkscape.org/namespaces/inkscape"
   xmlns:sodipodi="http://sodipodi.sourceforge.net/DTD/sodipodi-0.dtd"
   xmlns="http://www.w3.org/2000/svg"
   xmlns:svg="http://www.w3.org/2000/svg"><defs
     id="defs933" /><sodipodi:namedview
     id="namedview931"
     pagecolor="#ffffff"
     bordercolor="#666666"
     borderopacity="1.0"
     objecttolerance="10.0"
     gridtolerance="10.0"
     guidetolerance="10.0"
     inkscape:pageshadow="2"
     inkscape:pageopacity="0.0"
     inkscape:pagecheckerboard="0"
     showgrid="false"
     inkscape:zoom="4.1748278"
     inkscape:cx="18.324109"
     inkscape:cy="49.103821"
     inkscape:window-width="1296"
     inkscape:window-height="830"
     inkscape:window-x="81"
     inkscape:window-y="0"
     inkscape:window-maximized="0"
     inkscape:current-layer="svg929" /><path
     style="fill:none;stroke:#000000"
     d="m 89.5,93.2 c -0.1,0 -7,-3 -11.7,-11.1 -0.6,-1 -1.2,-2.4 -2,-4.1 -3.7,-8.2 -9.9,-21.9 -22,-21.9 -12.1,0 -18.3,13.7 -22,21.9 -0.8,1.7 -1.4,3.2 -2,4.1 C 25,90.3 18.1,93.2 18,93.2 c -0.3,0.1 -0.5,0.5 -0.5,0.9 0.1,0.4 0.4,0.6 0.8,0.6 h 70.9 c 0.4,0 0.7,-0.3 0.8,-0.6 0,-0.4 -0.2,-0.7 -0.5,-0.9 z"
     id="path903" /><path
     d="M43.8,42.8c0.7,0,1.2-0.6,1.2-1.2c0-0.7-0.6-1.2-1.2-1.2c-0.7,0-1.2,0.6-1.2,1.2C42.6,42.3,43.2,42.8,43.8,42.8z"
     id="path905"
     style="fill:none;stroke:#000000" /><path
     d="M52.4,50.1c0.7,0,1.2-0.6,1.2-1.2c0-0.7-0.6-1.2-1.2-1.2c-0.7,0-1.2,0.6-1.2,1.2C51.2,49.5,51.7,50.1,52.4,50.1z"
     id="path907"
     style="fill:none;stroke:#000000" /><path
     d="M57.3,23.8c0.7,0,1.2-0.6,1.2-1.2c0-0.7-0.6-1.2-1.2-1.2c-0.7,0-1.2,0.6-1.2,1.2C56.1,23.2,56.7,23.8,57.3,23.8z"
     id="path909"
     style="fill:none;stroke:#000000" /><path
     d="M48.2,16.9c-0.7,0-1.2,0.6-1.2,1.2c0,0.7,0.6,1.2,1.2,1.2c0.7,0,1.2-0.6,1.2-1.2C49.5,17.5,48.9,16.9,48.2,16.9z"
     id="path917"
     style="fill:none;stroke:#000000" /><path
     d="M53.2,35.2c0.7,0,1.2-0.6,1.2-1.2c0-0.7-0.6-1.2-1.2-1.2c-0.7,0-1.2,0.6-1.2,1.2C52,34.7,52.6,35.2,53.2,35.2z"
     id="path919"
     style="fill:none;stroke:#000000" /><path
     d="M47.9,7.5c0.7,0,1.2-0.6,1.2-1.2S48.6,5,47.9,5c-0.7,0-1.2,0.6-1.2,1.2C46.7,6.9,47.2,7.5,47.9,7.5z"
     id="path923"
     style="fill:none;stroke:#000000" /></svg>
